<svg width="1399" height="625" viewBox="0 0 1399 625" fill="none" xmlns="http://www.w3.org/2000/svg">
<path d="M1397.14 95.4975C1397.14 95.4975 1398.26 95.974 1398.57 96.4505C1398.89 96.927 1399.21 97.4035 1399.21 98.0388C1399.21 98.0388 1399.05 99.1506 1398.57 99.6271C1398.1 100.104 1397.78 100.421 1397.14 100.58C1375.99 105.504 1344.03 114.875 1330.98 127.899C1317.94 140.923 1308.56 172.847 1303.63 193.972C1303.63 194.607 1303.15 195.084 1302.68 195.401C1302.2 195.719 1301.72 195.878 1301.09 195.878C1301.09 195.878 1299.97 195.719 1299.5 195.401C1299.02 195.084 1298.7 194.607 1298.54 193.972C1293.61 172.847 1284.23 140.923 1271.19 127.899C1258.15 114.875 1226.18 105.504 1205.03 100.58C1204.4 100.58 1203.92 100.104 1203.6 99.6271C1203.28 99.1506 1203.12 98.6741 1203.12 98.0388C1203.12 98.0388 1203.28 96.927 1203.76 96.4505C1204.08 95.974 1204.55 95.6563 1205.19 95.4975C1226.34 90.5738 1258.31 81.2029 1271.35 68.1789C1284.39 55.1548 1293.77 23.2301 1298.7 2.1058C1298.7 1.47048 1299.18 0.993992 1299.66 0.676333C1300.13 0.358675 1300.61 0.0410156 1301.25 0.0410156C1301.25 0.0410156 1302.36 0.199845 1302.84 0.676333C1303.31 0.993992 1303.63 1.47048 1303.79 2.1058C1308.72 23.2301 1318.1 55.1548 1331.14 68.1789C1344.18 81.2029 1376.15 90.5738 1397.3 95.4975H1397.14Z" fill="white"/>
<path d="M1032.96 511.472H1205.19C1207.58 511.472 1209.48 513.378 1209.48 515.76V618.999C1209.48 621.382 1207.58 623.288 1205.19 623.288H836.396C833.215 623.288 831.148 620.27 832.579 617.411L1005.61 288.475L1009.1 281.01C1010.38 278.151 1008.31 274.975 1005.29 274.975H834.169C831.784 274.975 829.876 273.069 829.876 270.686L829.398 165.7C829.398 163.317 831.307 161.57 833.692 161.57H1208.05C1211.23 161.57 1213.3 165.065 1211.71 167.923L1033.75 497.495L1029.3 505.118C1027.71 507.977 1029.78 511.472 1032.96 511.472Z" fill="white"/>
<path d="M618.84 167.448L430.706 620.588C429.433 623.923 424.821 624.241 423.072 621.223L316.839 442.699C315.089 439.999 311.273 439.999 309.523 442.699L198.837 622.018C196.929 625.035 192.476 624.559 191.204 621.382L0.36523 167.448C-0.907026 164.589 1.31942 161.412 4.34103 161.412H120.434C122.025 161.412 123.615 162.365 124.41 163.953L214.422 351.849C216.013 355.184 220.624 355.184 222.215 351.849L307.138 163.953C308.728 160.777 313.34 160.777 314.93 163.953L397.309 351.372C398.899 354.708 403.67 354.549 405.261 351.213L486.844 164.112C487.48 162.524 489.07 161.412 490.82 161.412H614.546C617.727 161.412 619.795 164.589 618.522 167.448H618.84Z" fill="white"/>
<path d="M775.488 162.365H661.462C659.09 162.365 657.168 164.285 657.168 166.654V618.841C657.168 621.21 659.09 623.13 661.462 623.13H775.488C777.859 623.13 779.782 621.21 779.782 618.841V166.654C779.782 164.285 777.859 162.365 775.488 162.365Z" fill="white"/>
</svg>
