<svg width="1753" height="1754" viewBox="0 0 1753 1754" fill="none" xmlns="http://www.w3.org/2000/svg">
<rect width="1753" height="1753" transform="translate(0 0.0390625)" fill="#0254EC"/>
<path d="M1606.14 582.496C1606.14 582.496 1607.26 582.972 1607.57 583.449C1607.89 583.925 1608.21 584.402 1608.21 585.037C1608.21 585.037 1608.05 586.149 1607.57 586.625C1607.1 587.102 1606.78 587.419 1606.14 587.578C1584.99 592.502 1553.03 601.873 1539.98 614.897C1526.94 627.921 1517.56 659.845 1512.63 680.97C1512.63 681.605 1512.15 682.082 1511.68 682.399C1511.2 682.717 1510.72 682.876 1510.09 682.876C1510.09 682.876 1508.97 682.717 1508.5 682.399C1508.02 682.082 1507.7 681.605 1507.54 680.97C1502.61 659.845 1493.23 627.921 1480.19 614.897C1467.15 601.873 1435.18 592.502 1414.03 587.578C1413.4 587.578 1412.92 587.102 1412.6 586.625C1412.28 586.149 1412.12 585.672 1412.12 585.037C1412.12 585.037 1412.28 583.925 1412.76 583.449C1413.08 582.972 1413.55 582.654 1414.19 582.496C1435.34 577.572 1467.31 568.201 1480.35 555.177C1493.39 542.153 1502.77 510.228 1507.7 489.104C1507.7 488.469 1508.18 487.992 1508.66 487.674C1509.13 487.357 1509.61 487.039 1510.25 487.039C1510.25 487.039 1511.36 487.198 1511.84 487.674C1512.31 487.992 1512.63 488.469 1512.79 489.104C1517.72 510.228 1527.1 542.153 1540.14 555.177C1553.18 568.201 1585.15 577.572 1606.3 582.496H1606.14Z" fill="white"/>
<path d="M1241.96 998.47H1414.19C1416.58 998.47 1418.48 1000.38 1418.48 1002.76V1106C1418.48 1108.38 1416.58 1110.29 1414.19 1110.29H1045.4C1042.22 1110.29 1040.15 1107.27 1041.58 1104.41L1214.61 775.473L1218.1 768.008C1219.38 765.149 1217.31 761.973 1214.29 761.973H1043.17C1040.78 761.973 1038.88 760.067 1038.88 757.684L1038.4 652.698C1038.4 650.315 1040.31 648.568 1042.69 648.568H1417.05C1420.23 648.568 1422.3 652.063 1420.71 654.922L1242.75 984.493L1238.3 992.116C1236.71 994.975 1238.78 998.47 1241.96 998.47Z" fill="white"/>
<path d="M827.84 654.446L639.706 1107.59C638.433 1110.92 633.821 1111.24 632.072 1108.22L525.839 929.697C524.089 926.997 520.273 926.997 518.523 929.697L407.837 1109.02C405.929 1112.03 401.476 1111.56 400.204 1108.38L209.365 654.446C208.093 651.587 210.319 648.41 213.341 648.41H329.434C331.025 648.41 332.615 649.363 333.41 650.951L423.422 838.847C425.013 842.182 429.624 842.182 431.215 838.847L516.138 650.951C517.728 647.775 522.34 647.775 523.93 650.951L606.309 838.37C607.899 841.706 612.67 841.547 614.261 838.211L695.844 651.11C696.48 649.522 698.07 648.41 699.82 648.41H823.546C826.727 648.41 828.795 651.587 827.522 654.446H827.84Z" fill="white"/>
<path d="M984.488 649.363H870.462C868.09 649.363 866.168 651.283 866.168 653.652V1105.84C866.168 1108.21 868.09 1110.13 870.462 1110.13H984.488C986.859 1110.13 988.782 1108.21 988.782 1105.84V653.652C988.782 651.283 986.859 649.363 984.488 649.363Z" fill="white"/>
</svg>
