<svg width="742" height="575" viewBox="0 0 742 575" fill="none" xmlns="http://www.w3.org/2000/svg">
<g clip-path="url(#clip0_1348_2154)">
<path d="M740.15 87.7309C740.705 87.8233 741.168 88.1005 741.445 88.5625C741.723 89.0246 742.001 89.4866 742.001 90.041C742.001 90.5954 741.816 91.0574 741.445 91.5194C741.075 91.9814 740.613 92.2586 740.15 92.351C720.716 96.7863 691.288 105.472 679.257 117.484C667.227 129.497 658.621 158.88 654.086 178.285C653.993 178.839 653.716 179.301 653.253 179.578C652.79 179.948 652.328 180.133 651.772 180.04C651.217 180.04 650.754 179.856 650.292 179.578C649.829 179.209 649.551 178.747 649.459 178.285C645.017 158.88 636.318 129.497 624.288 117.484C612.257 105.472 582.829 96.8787 563.395 92.351C562.84 92.2586 562.377 91.9814 562.099 91.5194C561.822 91.0574 561.637 90.5954 561.637 90.041C561.637 89.4866 561.822 89.0246 562.192 88.5625C562.562 88.1005 563.025 87.8233 563.488 87.7309C582.921 83.2956 612.35 74.6099 624.38 62.5976C636.411 50.5854 645.017 21.2016 649.551 1.79725C649.644 1.24284 649.922 0.780835 650.384 0.50363C650.847 0.134022 651.31 -0.0507812 651.865 -0.0507812C652.42 -0.0507812 652.883 0.134022 653.346 0.50363C653.808 0.873237 654.086 1.33525 654.179 1.79725C658.621 21.2016 667.319 50.5854 679.35 62.5976C691.38 74.6099 720.809 83.2032 740.242 87.7309H740.15Z" fill="white"/>
<path d="M569.502 153.981L396.357 570.991C395.154 573.948 390.989 574.317 389.231 571.545L291.507 407.255C289.934 404.76 286.325 404.76 284.751 407.255L182.955 572.284C181.197 574.964 177.125 574.687 175.922 571.638L0.277992 153.889C-0.832509 151.209 1.11087 148.345 3.97966 148.345H110.865C112.346 148.345 113.827 149.269 114.475 150.655L197.392 323.539C198.873 326.496 203.13 326.588 204.61 323.539L282.808 150.563C284.289 147.606 288.546 147.606 290.026 150.563L365.911 322.984C367.391 326.034 371.741 325.941 373.129 322.8L448.273 150.563C448.921 149.084 450.401 148.16 451.974 148.16H565.893C568.762 148.16 570.706 151.117 569.595 153.704L569.502 153.981Z" fill="white"/>
</g>
<defs>
<clipPath id="clip0_1348_2154">
<rect width="742" height="574" fill="white" transform="translate(0 0.0410156)"/>
</clipPath>
</defs>
</svg>
